#!OML:ASF X:\für Bonn\!DataBase\2005_08_12_Daniel\c3d\Daniel.ASF
:FULLY-SPECIFIED
:DEGREES
3202
root -7.06611 17.1319 13.0223 -906.417 32.5049 -179.225
lowerback 17.3407 3.41906 -0.470526
upperback 3.00352 4.64632 -3.07661
thorax -6.23864 2.43478 -4.07271
lowerneck 4.53264 2.31434 -4.51062
upperneck 23.5712 6.46027 -2.37784
head 6.43659 3.55072 0.365627
rclavicle -5.68524e-014 3.81667e-014
rhumerus -25.5739 -9.57477 -91.6803
rradius 17.3694
rwrist 31.0654
rhand -13.6189 15.9139
rfingers 7.12502
rthumb 12.4965 -13.6925
lclavicle -5.68524e-014 3.81667e-014
lhumerus -62.8016 54.7534 38.5677
lradius 16.2236
lwrist -54.1887
lhand -12.7486 -8.88592
lfingers 7.12502
lthumb 13.3355 20.6674
rfemur -5.12884 -5.71318 18.8192
rtibia 72.5466
rfoot 8.47527 3.304
rtoes -11.7869
lfemur -21.6504 -2.42921 -24.7722
ltibia 47.0411
lfoot -17.6802 3.7205
ltoes -2.7984
3203
root -6.97577 17.1555 12.8812 -906.469 31.5343 -179.048
lowerback 17.4324 3.30478 -0.177522
upperback 2.99513 4.55001 -3.03673
thorax -6.28433 2.38136 -4.18214
lowerneck 4.64597 2.15615 -4.69316
upperneck 23.7386 6.25294 -2.15583
head 6.46278 3.46632 0.460963
rclavicle 2.70347e-014 -3.26007e-014
rhumerus -25.4859 -8.6407 -92.0132
rradius 17.8755
rwrist 30.8882
rhand -13.836 16.1271
rfingers 7.12502
rthumb 12.2872 -13.4919
lclavicle 2.70347e-014 -3.26007e-014
lhumerus -60.3601 53.5463 41.8523
lradius 16.6766
lwrist -52.2018
lhand -12.2909 -9.22488
lfingers 7.12502
lthumb 13.7766 20.299
rfemur -6.68418 -5.9673 19.1399
rtibia 73.7219
rfoot 7.89803 3.18836
rtoes -10.9659
lfemur -20.8232 -2.83052 -24.7531
ltibia 46.9144
lfoot -17.9574 3.16101
ltoes -2.57812
3204
root -6.88598 17.1795 12.7413 -906.489 30.484 -178.882
lowerback 17.4907 3.17881 0.145244
upperback 2.96851 4.44181 -3.01984
thorax -6.32903 2.32059 -4.32873
lowerneck 4.73693 1.98056 -4.86309
upperneck 23.9611 6.02364 -1.88902
head 6.51049 3.376 0.570043
rclavicle 3.24019e-014 -1.03368e-014
rhumerus -25.4568 -7.93979 -92.2709
rradius 18.4449
rwrist 30.5952
rhand -14.0166 16.3686
rfingers 7.12502
rthumb 12.1131 -13.2608
lclavicle 3.24019e-014 -1.03368e-014
lhumerus -57.9672 52.2251 45.0702
lradius 17.2218
lwrist -49.9811
lhand -11.8427 -9.51604
lfingers 7.12502
lthumb 14.2086 19.978
rfemur -8.25274 -6.21397 19.477
rtibia 74.7196
rfoot 7.3946 3.05793
rtoes -10.4115
lfemur -20.0542 -3.29714 -24.7311
ltibia 46.7877
lfoot -18.2267 2.55457
ltoes -2.26445
3205
root -6.79353 17.2032 12.6022 -906.529 29.4115 -178.706
lowerback 17.5342 3.05612 0.45065
upperback 2.95243 4.33703 -2.98718
thorax -6.35776 2.26239 -4.44769
lowerneck 4.82277 1.79793 -5.02566
upperneck 24.1711 5.78271 -1.62981
head 6.55658 3.28005 0.675299
rclavicle 7.03698e-014 -2.70347e-014
rhumerus -25.4549 -7.36203 -92.4529
rradius 19.0241
rwrist 30.1143
rhand -14.229 16.6803
rfingers 7.12502
rthumb 11.9083 -12.961
lclavicle 7.03698e-014 -2.70347e-014
lhumerus -56.0246 51.1215 47.6797
lradius 17.7647
lwrist -47.9924
lhand -11.3874 -9.79201
lfingers 7.12502
lthumb 14.6472 19.6707
rfemur -9.7586 -6.3711 19.878
rtibia 75.5025
rfoot 7.03314 2.78881
rtoes -9.87645
lfemur -19.2527 -3.77806 -24.6873
ltibia 46.6465
lfoot -18.4762 1.95701
ltoes -2.11463
3206
root -6.70079 17.2255 12.4639 -906.572 28.305 -178.531
lowerback 17.5534 2.92847 0.761364
upperback 2.95129 4.22877 -2.95398
thorax -6.35811 2.20366 -4.56567
lowerneck 4.76988 1.59981 -5.25665
upperneck 24.4618 5.52416 -1.3222
head 6.65107 3.16909 0.812549
rclavicle -1.39149e-014 3.49861e-014
rhumerus -25.4801 -6.8528 -92.5851
rradius 19.6448
rwrist 29.3122
rhand -14.4028 16.9902
rfingers 7.12502
rthumb 11.7407 -12.6608
lclavicle -1.39149e-014 3.49861e-014
lhumerus -54.1982 50.0595 50.1146
lradius 18.3143
lwrist -46.0183
lhand -11.0473 -9.95843
lfingers 7.12502
lthumb 14.9749 19.4801
rfemur -11.2335 -6.48814 20.2874
rtibia 76.0978
rfoot 6.77602 2.47974
rtoes -9.6869
lfemur -18.4611 -4.25178 -24.6334
ltibia 46.5058
lfoot -18.7288 1.32824
ltoes -1.95027
3207
root -6.60613 17.2487 12.326 -906.62 27.1464 -178.361
lowerback 17.531 2.7907 1.03439
upperback 2.96126 4.10164 -2.90522
thorax -6.33035 2.13744 -4.63785
lowerneck 4.66229 1.39396 -5.55639
upperneck 24.7919 5.24774 -0.950482
head 6.76673 3.04686 0.983881
rclavicle -3.08116e-014 0
rhumerus -25.5384 -6.35854 -92.6665
rradius 20.3068
rwrist 28.284
rhand -14.6024 17.2356
rfingers 7.12502
rthumb 11.5482 -12.4263
lclavicle -3.08116e-014 0
lhumerus -52.5723 49.1338 52.2333
lradius 18.8277
lwrist -44.1873
lhand -10.742 -10.1957
lfingers 7.12502
lthumb 15.269 19.2207
rfemur -12.6507 -6.57279 20.6912
rtibia 76.4935
rfoot 6.61253 2.159
rtoes -9.96412
lfemur -17.6723 -4.72411 -24.5593
ltibia 46.3517
lfoot -18.9625 0.631535
ltoes -1.81491
3208
root -6.50999 17.2716 12.189 -906.653 25.956 -178.188
lowerback 17.4871 2.66257 1.28657
upperback 2.95864 3.98163 -2.86259
thorax -6.30573 2.07446 -4.7057
lowerneck 4.51242 1.15184 -5.77559
upperneck 25.1592 4.93557 -0.624417
head 6.90729 2.91125 1.12795
rclavicle -2.82274e-014 2.54444e-014
rhumerus -25.6783 -6.10218 -92.6733
rradius 21.0195
rwrist 27.1869
rhand -14.7973 17.5452
rfingers 7.12502
rthumb 11.3602 -12.1271
lclavicle -2.82274e-014 2.54444e-014
lhumerus -50.9234 48.0831 54.3205
lradius 19.3851
lwrist -42.3359
lhand -10.4326 -10.3656
lfingers 7.12502
lthumb 15.5671 19.0279
rfemur -14.0705 -6.57109 21.0976
rtibia 76.7286
rfoot 6.54695 1.86178
rtoes -10.2145
lfemur -16.9119 -5.14872 -24.4563
ltibia 46.2075
lfoot -19.1927 -0.14107
ltoes -1.79533
3209
root -6.41054 17.2934 12.0524 -906.713 24.7347 -178.031
lowerback 17.4263 2.54382 1.45958
upperback 2.96274 3.86077 -2.79728
thorax -6.27226 2.0132 -4.70273
lowerneck 4.4167 0.90835 -6.00253
upperneck 25.4893 4.60809 -0.273516
head 7.0282 2.77153 1.27888
rclavicle -6.7885e-014 3.97569e-015
rhumerus -25.8736 -5.83832 -92.6369
rradius 21.7568
rwrist 25.775
rhand -15.086 17.8
rfingers 7.12502
rthumb 11.0818 -11.8874
lclavicle -6.7885e-014 3.97569e-015
lhumerus -49.2341 46.8349 56.5057
lradius 20.0114
lwrist -40.3193
lhand -10.127 -10.5036
lfingers 7.12502
lthumb 15.8613 18.8667
rfemur -15.4069 -6.49411 21.4904
rtibia 76.7916
rfoot 6.45218 1.63411
rtoes -10.4898
lfemur -16.1515 -5.52555 -24.336
ltibia 46.0749
lfoot -19.3898 -0.988297
ltoes -1.81445
3210
root -6.30967 17.3116 11.9174 -906.766 23.4707 -177.866
lowerback 17.3257 2.42034 1.59044
upperback 2.98346 3.72762 -2.70756
thorax -6.20523 1.94822 -4.64354
lowerneck 4.36817 0.646181 -6.19912
upperneck 25.7765 4.25931 0.0124896
head 7.1321 2.62106 1.40092
rclavicle -7.31528e-014 3.26007e-014
rhumerus -26.0773 -5.54099 -92.5567
rradius 22.4972
rwrist 24.2333
rhand -15.4782 17.985
rfingers 7.12502
rthumb 10.7035 -11.7224
lclavicle -7.31528e-014 3.26007e-014
lhumerus -47.5053 45.3594 58.7919
lradius 20.7302
lwrist -38.1484
lhand -9.91778 -10.6116
lfingers 7.12502
lthumb 16.0628 18.7426
rfemur -16.7027 -6.33213 21.8825
rtibia 76.7048
rfoot 6.22794 1.47682
rtoes -11.146
lfemur -15.4343 -5.9564 -24.1962
ltibia 45.9771
lfoot -19.6073 -1.81086
ltoes -1.88386
